<svg xmlns="http://www.w3.org/2000/svg" viewBox="0 0 240 50" fill="none">
    <!-- Dark/Teal Badge Container -->
    <rect width="240" height="50" rx="8" fill="#032B3A" stroke="#00A5F3" stroke-width="1.5" stroke-opacity="0.6"/>
    <!-- Official GLPI Slanted Vector Mark -->
    <g transform="translate(18, 9) scale(0.16)" fill="#00A5F3">
        <!-- G -->
        <path d="M78 26c-31 0-56 12-68 32-15 25-10 59 13 83 23 23 58 29 88 16 23-10 39-31 43-56h-54v-27h84c4 24 1 51-10 74-21 44-71 72-120 67-53-5-96-46-102-99-7-62 34-118 96-127 34-5 68 4 93 26l-20 23c-17-15-40-21-63-18z" />
        <!-- L -->
        <path d="M223.9 198c-11.7 0-23.3-.3-35 0-7.3.3-9.9-1.7-8.7-9.5 7.1-48.7 13.7-97.4 20.6-146.2.2-1.2.4-2.3.6-3.4 2.5-17.8 2.5-17.6 20.2-17.2 6.7.1 8.8 2.6 7.8 9-3.7 26.3-7.5 52.5-11.1 78.8-2.8 19.7-5.3 39.2-8.3 58.8-.8 4.9.6 6 5.2 6 16-.2 32 .2 48.1-.2 6.8-.2 9.4 1.8 8.6 9-1.7 14.4-1.9 14.8-16.3 14.8z" />
        <!-- P -->
        <path d="M338.5 21.7c-13.4.8-26.8.4-40.3 0-7.1-.2-10.2 2.1-11.2 9.7-6.8 51.1-14.1 102.2-21.3 153.2-1.9 13.4-2.1 13.4 10.9 13.4 13.9 0 13.9 0 15.7-13.6 1.2-9 2.7-17.9 3.6-26.9 2.5-22.9 2.5-22.9 25-22.9h3.5c34.2 0 59.4-22.2 64.1-55.9 3.3-26.6-12.8-59.2-50-57zm-13 87.7c-2-.2-4.1 0-6.1 0-16.4 0-16.5 0-14.6-16.2 1.6-13.3 3.8-26.5 5.4-39.8.6-4.8 2.5-6.4 7.2-6.2 6.7.3 13.4.1 20.1.1 18.6 0 28.5 10.8 26.2 28.7-2.1 17.5-14.7 33.1-38.2 33.4z" />
        <!-- I -->
        <path d="M414.8 198c-13.1 0-13.1-.3-11.2-13.3 7.4-51.3 14.5-102.6 21.6-153.9.9-6.5 3.3-9.6 9.9-9h3.5c14.8 0 14.4 0 12.3 14.8-7.1 49.5-13.9 99.1-20.9 148.7-2 12.7-2.3 12.7-15.2 12.7z" />
    </g>
    <!-- GLPI Official Typography -->
    <text x="76" y="34" font-family="'Space Grotesk', 'Inter', sans-serif" font-weight="900" font-size="28" fill="#FFFFFF" letter-spacing="3">GLPI</text>
</svg>
